<svg xmlns="http://www.w3.org/2000/svg" viewBox="0 0 192 192" width="192" height="192">
  <defs>
    <linearGradient id="bgGradient" x1="0%" y1="0%" x2="100%" y2="100%">
      <stop offset="0%" style="stop-color:#1976D2;stop-opacity:1" />
      <stop offset="100%" style="stop-color:#1565C0;stop-opacity:1" />
    </linearGradient>
    <linearGradient id="shieldGradient" x1="0%" y1="0%" x2="100%" y2="100%">
      <stop offset="0%" style="stop-color:#FFFFFF;stop-opacity:1" />
      <stop offset="100%" style="stop-color:#E3F2FD;stop-opacity:1" />
    </linearGradient>
  </defs>
  
  <!-- Background -->
  <rect width="192" height="192" rx="24" ry="24" fill="url(#bgGradient)"/>
  
  <!-- Shield Shape -->
  <path d="M96 32L64 48v32c0 20 8 38.4 22.4 51.2L96 144l9.6-12.8C120 118.4 128 100 128 80V48L96 32z" 
        fill="url(#shieldGradient)" 
        stroke="#1976D2" 
        stroke-width="2"/>
  
  <!-- Lock Icon in Shield -->
  <rect x="86" y="76" width="20" height="16" rx="2" ry="2" fill="#1976D2"/>
  <path d="M84 76v-6c0-6.6 5.4-12 12-12s12 5.4 12 12v6" 
        stroke="#1976D2" 
        stroke-width="3" 
        fill="none" 
        stroke-linecap="round"/>
  
  <!-- Key dot -->
  <circle cx="96" cy="84" r="2" fill="#FFFFFF"/>
  
  <!-- Access indicator dots -->
  <circle cx="76" cy="108" r="3" fill="#4CAF50" opacity="0.8"/>
  <circle cx="96" cy="112" r="3" fill="#FF9800" opacity="0.8"/>
  <circle cx="116" cy="108" r="3" fill="#F44336" opacity="0.8"/>
  
  <!-- Building outline -->
  <rect x="48" y="144" width="96" height="32" fill="#1976D2" opacity="0.1" rx="4" ry="4"/>
  <rect x="52" y="148" width="8" height="8" fill="#1976D2" opacity="0.3"/>
  <rect x="64" y="148" width="8" height="8" fill="#1976D2" opacity="0.3"/>
  <rect x="76" y="148" width="8" height="8" fill="#1976D2" opacity="0.3"/>
  <rect x="108" y="148" width="8" height="8" fill="#1976D2" opacity="0.3"/>
  <rect x="120" y="148" width="8" height="8" fill="#1976D2" opacity="0.3"/>
  <rect x="132" y="148" width="8" height="8" fill="#1976D2" opacity="0.3"/>
  
  <rect x="52" y="160" width="8" height="8" fill="#1976D2" opacity="0.3"/>
  <rect x="64" y="160" width="8" height="8" fill="#1976D2" opacity="0.3"/>
  <rect x="76" y="160" width="8" height="8" fill="#1976D2" opacity="0.3"/>
  <rect x="108" y="160" width="8" height="8" fill="#1976D2" opacity="0.3"/>
  <rect x="120" y="160" width="8" height="8" fill="#1976D2" opacity="0.3"/>
  <rect x="132" y="160" width="8" height="8" fill="#1976D2" opacity="0.3"/>
  
  <!-- Door -->
  <rect x="88" y="160" width="16" height="16" fill="#FFF" rx="2" ry="2"/>
  <circle cx="100" cy="168" r="1.5" fill="#1976D2"/>
</svg>
